<?xml version="1.0" encoding="utf-8"?>
<!-- Generator: Adobe Illustrator 25.0.0, SVG Export Plug-In . SVG Version: 6.00 Build 0)  -->
<svg version="1.1" xmlns="http://www.w3.org/2000/svg" xmlns:xlink="http://www.w3.org/1999/xlink" x="0px" y="0px"
	 viewBox="0 0 512 512" style="enable-background:new 0 0 512 512;" xml:space="preserve">
<style type="text/css">
	.st0{fill:#BDBDBD;}
	.st1{fill:#757575;}
	.st2{opacity:0.1;fill:#B999FF;}
	.st3{fill:none;stroke:#757575;stroke-width:40;stroke-miterlimit:10;}
	.st4{fill:#FFFFFF;}
</style>
<g id="Capa_3">
</g>
<g id="task">
	<path class="st0" d="M423.1,119.4H179.2c-8.3,0-15-6.7-15-15V79.6c0-8.3,6.7-15,15-15h243.9c8.3,0,15,6.7,15,15v24.8
		C438.1,112.7,431.4,119.4,423.1,119.4z"/>
	<path class="st0" d="M423.2,256.3H179.3c-8.3,0-15-6.7-15-15v-24.8c0-8.3,6.7-15,15-15h243.9c8.3,0,15,6.7,15,15v24.8
		C438.2,249.6,431.4,256.3,423.2,256.3z"/>
	<path class="st0" d="M423.1,393.2H179.2c-8.3,0-15-6.7-15-15v-24.8c0-8.3,6.7-15,15-15h243.9c8.3,0,15,6.7,15,15v24.8
		C438.1,386.4,431.4,393.2,423.1,393.2z"/>
	<path class="st0" d="M113.4,36.3L57.7,92L32.3,66.6c-2.7-2.7-7-2.7-9.7,0L2,87.2c-2.7,2.7-2.7,7,0,9.7l30.3,30.3c0,0,0,0,0,0
		l20.6,20.6c0.7,0.7,1.4,1.2,2.3,1.5c0.4,0.2,0.8,0.3,1.3,0.4c1.1,0.2,2.2,0.2,3.3-0.2c0.4-0.1,0.8-0.3,1.2-0.5
		c0.2-0.1,0.4-0.2,0.6-0.3c0.4-0.3,0.7-0.5,1.1-0.9l81.1-81.1c2.7-2.7,2.7-7,0-9.7l-20.6-20.6C120.4,33.6,116,33.6,113.4,36.3z"/>
	<path class="st0" d="M113.4,173.3l-55.7,55.7l-25.4-25.4c-2.7-2.7-7-2.7-9.7,0L2,224.1c-2.7,2.7-2.7,7,0,9.7l30.3,30.3c0,0,0,0,0,0
		l20.6,20.6c0.7,0.7,1.4,1.2,2.3,1.5c0.4,0.2,0.8,0.3,1.3,0.4c1.1,0.2,2.2,0.2,3.3-0.2c0.4-0.1,0.8-0.3,1.2-0.5
		c0.2-0.1,0.4-0.2,0.6-0.3c0.4-0.3,0.7-0.5,1.1-0.9l81.1-81.1c2.7-2.7,2.7-7,0-9.7l-20.6-20.6C120.4,170.6,116,170.6,113.4,173.3z"
		/>
	<circle class="st0" cx="72.8" cy="365.6" r="42.8"/>
</g>
<g id="lupa">
	<path class="st1" d="M469.3,470.4l-51.5-51.5c-9.8-9.8-9.8-25.6,0-35.4l0,0c9.8-9.8,25.6-9.8,35.4,0l51.5,51.5
		c9.8,9.8,9.8,25.6,0,35.4l0,0C494.9,480.1,479.1,480.1,469.3,470.4z"/>
	<circle class="st2" cx="374.6" cy="340.3" r="70"/>
	<circle class="st3" cx="374.6" cy="340.3" r="70"/>
	<g>
		<path class="st4" d="M392,309.3c2.2,0.8,4,1.8,5.7,3c1.7,1.2,3.3,2.6,4.7,4c2.9,2.9,5.2,6.4,7,10.1c1.8,3.8,3,7.9,3.5,12.3
			c0.5,4.4,0.3,9-0.8,13.5c-1.1,4.5-3,8.9-5.6,12.7c-2.6,3.8-5.9,7-9.5,9.4c-1.8,1.2-3.7,2.3-5.6,3.1c-1.9,0.9-3.9,1.5-5.9,2
			c-2,0.5-4.1,0.7-6.2,0.8c-2.1,0-4.2-0.1-6.4-0.5l-0.5-0.1c-0.4-0.1-0.6-0.4-0.5-0.8c0-0.2,0.2-0.4,0.3-0.5
			c1.5-0.9,2.9-1.7,4.4-2.6l2.1-1.4c0.7-0.5,1.4-0.9,2.1-1.5c1.3-1,2.7-2,3.9-3.2c0.6-0.6,1.3-1.1,1.8-1.7l1.7-1.8
			c2.2-2.5,4.3-5.1,5.8-8.1c1.6-2.9,2.8-6,3.5-9.2c1.6-6.4,1.3-13.2,0-19.8c-0.6-3.3-1.6-6.5-2.8-9.7c-1.2-3.2-2.5-6.3-4.2-9.2
			c-0.2-0.3-0.1-0.7,0.3-0.9c0.2-0.1,0.4-0.1,0.6-0.1L392,309.3z"/>
	</g>
</g>
</svg>
